PathFileType        4      (X/Y/Z)      C:\Users\pc\Desktop\IMUTRC\Sujet_05\Sujet_05_Tpose.trc         
DataRate	CameraRate	NumFrames	NumMarkers	Units	OrigDataRate	OrigDataStartFrame	OrigNumFrames
60.0	60.0	4	64	mm	60.0	15	116
Frame#	Time	pHipOrigin			pRightASI			pLeftASI			pRightCSI			pLeftCSI			pRightIschialTub			pLeftIschialTub			pSacrum			pL5SpinalProcess			pL3SpinalProcess			pT12SpinalProcess			pIJ			pT4SpinalProcess			pT8SpinalProcess			pPX			pC7SpinalProcess			pTopOfHead			pRightAuricularis			pLeftAuricularis			pBackOfHead			pRightAcromion			pLeftAcromion			pRightArmLatEpicondyle			pRightArmMedEpicondyle			pLeftArmLatEpicondyle			pLeftArmMedEpicondyle			pRightUlnarStyloid			pRightRadialStyloid			pRightOlecranon			pLeftUlnarStyloid			pLeftRadialStyloid			pLeftOlecranon			pRightTopOfHand			pRightPinky			pRightBallHand			pLeftTopOfHand			pLeftPinky			pLeftBallHand			pRightGreaterTrochanter			pRightKneeLatEpicondyle			pRightKneeMedEpicondyle			pRightPatella			pLeftGreaterTrochanter			pLeftKneeLatEpicondyle			pLeftKneeMedEpicondyle			pLeftPatella			pRightTibialTub			pRightLatMalleolus			pRightMedMalleolus			pLeftTibialTub			pLeftLatMalleolus			pLeftMedMalleolus			pRightHeelFoot			pRightFirstMetatarsal			pRightFifthMetatarsal			pRightPivotFoot			pRightHeelCenter			pRightToe			pLeftHeelFoot			pLeftFirstMetatarsal			pLeftFifthMetatarsal			pLeftPivotFoot			pLeftHeelCenter			pLeftToe			
		X1	Y1	Z1	X2	Y2	Z2	X3	Y3	Z3	X4	Y4	Z4	X5	Y5	Z5	X6	Y6	Z6	X7	Y7	Z7	X8	Y8	Z8	X9	Y9	Z9	X10	Y10	Z10	X11	Y11	Z11	X12	Y12	Z12	X13	Y13	Z13	X14	Y14	Z14	X15	Y15	Z15	X16	Y16	Z16	X17	Y17	Z17	X18	Y18	Z18	X19	Y19	Z19	X20	Y20	Z20	X21	Y21	Z21	X22	Y22	Z22	X23	Y23	Z23	X24	Y24	Z24	X25	Y25	Z25	X26	Y26	Z26	X27	Y27	Z27	X28	Y28	Z28	X29	Y29	Z29	X30	Y30	Z30	X31	Y31	Z31	X32	Y32	Z32	X33	Y33	Z33	X34	Y34	Z34	X35	Y35	Z35	X36	Y36	Z36	X37	Y37	Z37	X38	Y38	Z38	X39	Y39	Z39	X40	Y40	Z40	X41	Y41	Z41	X42	Y42	Z42	X43	Y43	Z43	X44	Y44	Z44	X45	Y45	Z45	X46	Y46	Z46	X47	Y47	Z47	X48	Y48	Z48	X49	Y49	Z49	X50	Y50	Z50	X51	Y51	Z51	X52	Y52	Z52	X53	Y53	Z53	X54	Y54	Z54	X55	Y55	Z55	X56	Y56	Z56	X57	Y57	Z57	X58	Y58	Z58	X59	Y59	Z59	X60	Y60	Z60	X61	Y61	Z61	X62	Y62	Z62	X63	Y63	Z63	X64	Y64	Z64	
15	0.233	267.8222	879.0728	283.03621000000004	342.03687	971.28453	401.59415000000007	317.82434	971.93391	152.88223000000005	298.62129	1033.71763	384.89585000000005	278.49056	1034.18147	178.02245000000005	221.06696	825.91654	339.71767000000006	211.04798	826.19485	236.18820000000005	205.76018	898.83246	289.1589200000001	237.20865	986.68408	286.46864000000005	246.02164	1100.88191	286.93248000000006	242.21814	1205.33906	288.88061000000005	391.38963	1427.70477	277.2845700000001	239.34232	1401.82241	292.9624200000001	236.1882	1309.79621	291.38536000000005	392.31732	1301.81813	274.59429000000006	243.33136	1458.6894	299.36344000000014	318.28818	1728.08866	284.8915800000001	354.18953	1617.7871	341.1091900000001	268.47158	1626.78563	222.73679000000013	264.85361	1624.37366	315.7834300000001	285.16988	1425.84941	489.5385400000001	228.30289	1433.64195	94.99478000000009	321.25677	1337.99779	719.2329500000001	376.08286	1327.97881	705.5960000000001	153.2533	1355.80931	-127.46369999999992	207.05894	1339.48208	-138.59589999999992	448.906	1263.04097	919.7981000000001	435.7329	1307.75531	937.5168600000001	351.0354	1312.30096	698.3600700000001	196.85442	1285.30537	-364.76511999999997	176.72369	1329.83417	-374.96963999999997	188.4125	1327.05112	-121.43375999999992	486.84826	1249.49679	1099.02654	487.40487	1232.70572	1014.4218100000002	468.66566	1267.86492	953.8440900000002	182.10425	1296.15926	-549.1885799999999	205.29634	1267.77215	-471.0776399999999	204.8325	1294.02559	-403.44951999999995	272.64616	847.16049	432.0221700000001	254.37079	486.56995	408.18070000000006	258.17429	485.45673	337.76953000000003	295.83824	486.56995	372.74320000000006	251.58774	848.27371	134.23579000000007	228.30289	487.77594	156.22189000000003	236.83758	486.01334	226.07645000000002	271.99678	486.84826	188.69081000000003	307.24875	451.68905	374.32026	225.70537	85.25410999999997	407.43856	229.1378	83.95534999999998	347.88128	283.77836	452.98781	186.18606000000003	204.36866	85.81071999999999	155.38697	211.69735	84.14088999999998	214.57317	189.24742	-0.18554000000002288	373.48534	354.09676	2.3192099999999787	350.84987	346.67529	1.8553699999999738	428.86804	372.65043	2.319209999999976	390.92579	228.11735	3.061359999999977	377.19608	452.98781	3.0613599999999757	398.53279	169.6733	0.1855399999999885	187.94866	333.87326	2.597509999999987	215.12978	328.58546	2.2264399999999918	136.8333	353.54015	2.5975099999999895	175.5177	208.636	3.4324299999999885	185.25838	434.06307	3.3396599999999896	170.13714	
16	0.25	267.8222	879.0728	283.22175000000004	341.94411	971.28453	401.8724500000001	317.91711	971.93391	153.06776000000005	298.62129	1033.71763	385.0813800000001	278.49056	1034.27424	178.20798000000005	221.06696	825.91654	339.81043000000005	211.04798	826.19485	236.37373000000005	205.76018	898.83246	289.3444600000001	237.20865	986.68408	286.6541700000001	246.02164	1100.88191	287.0252500000001	242.12537	1205.33906	289.06615000000005	391.29686	1427.70477	277.4701100000001	239.24955	1401.82241	293.1479600000001	236.09543	1309.79621	291.57090000000005	392.22455	1301.9109	274.77983000000006	243.23859	1458.6894	299.4562100000001	318.28818	1727.99589	284.9843400000001	354.09676	1617.7871	341.2019600000001	268.37881	1626.78563	222.92232000000013	264.76085	1624.37366	315.8762000000001	285.07711	1425.84941	489.7240700000001	228.21012	1433.64195	95.08755000000008	321.07123	1338.18332	719.4184900000001	375.89732	1328.16434	705.7815400000001	153.16053	1355.71654	-127.27815999999991	207.05894	1339.48208	-138.41036999999992	448.6277	1263.31927	920.0764100000001	435.54736	1308.03361	937.7951600000001	350.84987	1312.39372	698.6383800000001	196.85442	1285.2126	-364.67234999999994	176.72369	1329.7414	-374.78409999999997	188.4125	1327.05112	-121.34098999999992	486.47718	1249.86786	1099.30484	487.03379	1232.98402	1014.7001200000001	468.38736	1268.23599	954.1223900000001	182.01149	1296.0665	-549.0030399999999	205.29634	1267.67938	-470.89209999999997	204.8325	1294.02559	-403.26397999999995	272.64616	847.16049	432.1149300000001	254.37079	486.56995	408.18070000000006	258.17429	485.5495	337.86230000000006	295.74547	486.56995	372.83596000000006	251.68051	848.27371	134.42133000000007	228.39566	487.86871	156.31466000000003	236.83758	486.01334	226.26198000000002	271.99678	486.84826	188.87634000000003	307.24875	451.68905	374.32026	225.70537	85.25410999999997	407.43856	229.1378	83.95534999999998	347.88128	283.77836	452.98781	186.37160000000003	204.36866	85.90347999999999	155.38697	211.69735	84.14088999999998	214.57317	189.24742	-0.18554000000002288	373.48534	354.09676	2.4119799999999785	350.84987	346.67529	1.8553699999999738	428.86804	372.65043	2.319209999999976	390.92579	228.11735	3.061359999999977	377.19608	452.98781	3.1541199999999754	398.53279	169.6733	0.2783099999999885	187.94866	333.87326	2.597509999999987	215.12978	328.58546	2.2264399999999918	136.8333	353.54015	2.5975099999999895	175.5177	208.636	3.5251999999999883	185.25838	434.06307	3.43242999999999	170.13714	
17	0.267	267.8222	879.0728	283.40728000000007	341.94411	971.28453	402.0579900000001	317.91711	971.93391	153.34607000000005	298.52852	1033.71763	385.2669200000001	278.58333	1034.27424	178.39352000000005	221.06696	825.91654	339.99597000000006	211.14074	826.19485	236.55927000000005	205.76018	898.83246	289.4372200000001	237.20865	986.68408	286.8397100000001	246.02164	1100.88191	287.21078000000006	242.12537	1205.33906	289.25169000000005	391.2041	1427.70477	277.6556500000001	239.15678	1401.82241	293.33350000000013	236.00266	1309.79621	291.7564300000001	392.13178	1301.9109	274.96536000000003	243.14582	1458.6894	299.64174000000014	318.28818	1727.99589	285.0771100000001	354.09676	1617.7871	341.29473000000013	268.37881	1626.78563	223.0150900000001	264.76085	1624.46642	315.9689700000001	284.98434	1425.94217	489.8168400000001	228.02458	1433.64195	95.27309000000008	320.97846	1338.36886	719.6040200000001	375.80455	1328.25711	705.9670800000001	153.16053	1355.62377	-127.18539999999992	207.05894	1339.48208	-138.3175999999999	448.53493	1263.50481	920.2619500000001	435.36183	1308.31192	937.9807000000001	350.7571	1312.57926	698.8239200000002	197.03996	1285.11983	-364.48680999999993	176.72369	1329.55587	-374.59855999999996	188.50527	1326.95835	-121.15544999999992	486.29165	1250.14617	1099.58315	486.94102	1233.26233	1014.9784200000001	468.29459	1268.5143	954.3079300000002	182.10425	1295.97373	-548.8175099999999	205.38911	1267.58662	-470.70655999999997	204.92527	1293.93282	-403.1712099999999	272.64616	847.16049	432.3004700000001	254.27802	486.47718	408.27347000000003	258.08153	485.5495	337.86230000000006	295.74547	486.56995	372.83596000000006	251.77328	848.27371	134.60686000000007	228.39566	487.86871	156.40742000000003	236.83758	486.01334	226.35475000000002	272.08955	486.84826	188.96911000000003	307.15598	451.68905	374.41303	225.61261	85.16133999999997	407.43856	229.1378	83.95534999999998	347.88128	283.77836	452.98781	186.46437000000003	204.36866	85.90347999999999	155.38697	211.69735	84.14088999999998	214.57317	189.24742	-0.18554000000002288	373.48534	354.09676	2.4119799999999785	350.84987	346.67529	1.8553699999999738	428.86804	372.65043	2.319209999999976	390.92579	228.11735	3.061359999999977	377.19608	452.98781	3.1541199999999754	398.53279	169.6733	0.2783099999999885	187.94866	333.87326	2.597509999999987	215.12978	328.58546	2.3192099999999916	136.8333	353.54015	2.5975099999999895	175.61047	208.636	3.5251999999999883	185.35115	434.06307	3.43242999999999	170.13714	
18	0.283	267.8222	879.0728	283.5928200000001	341.85134	971.28453	402.33630000000005	318.00987	971.93391	153.53160000000005	298.43575	1033.71763	385.54523000000006	278.6761	1034.18147	178.57906000000006	221.06696	825.91654	340.18151000000006	211.14074	826.19485	236.65204000000006	205.76018	898.83246	289.6227600000001	237.20865	986.68408	287.0252500000001	245.92887	1100.88191	287.39632000000006	242.0326	1205.33906	289.3444600000001	391.11133	1427.79754	277.7484100000001	239.06402	1401.82241	293.4262600000001	236.00266	1309.79621	291.9419700000001	392.03901	1301.9109	275.05813000000006	242.96029	1458.6894	299.7345100000001	318.28818	1727.99589	285.0771100000001	354.00399	1617.7871	341.3875000000001	268.28604	1626.69286	223.1078600000001	264.66808	1624.46642	316.0617400000001	284.89158	1425.94217	490.00238000000013	227.93181	1433.54918	95.45862000000008	320.88569	1338.36886	719.6967900000001	375.71178	1328.34988	706.1526100000001	153.16053	1355.43823	-127.09262999999991	207.15171	1339.38931	-138.1320599999999	448.53493	1263.69035	920.4474800000002	435.36183	1308.49745	938.1662400000001	350.66433	1312.67203	699.0094500000001	197.22549	1285.02706	-364.39403999999996	176.90923	1329.4631	-374.50578999999993	188.50527	1326.95835	-121.06268999999992	486.19888	1250.3317	1099.76869	486.84826	1233.44787	1015.1639600000001	468.20182	1268.60707	954.4934600000001	182.28979	1295.69542	-548.7247399999999	205.57464	1267.49385	-470.61379999999997	205.1108	1293.84006	-402.98566999999997	272.55339	847.06772	432.4860100000001	254.27802	486.47718	408.36624000000006	258.08153	485.5495	337.95507000000003	295.74547	486.56995	372.92873000000003	251.77328	848.27371	134.79240000000004	228.39566	487.86871	156.50019000000003	236.83758	486.01334	226.44752000000003	272.08955	486.75549	189.06188000000003	307.15598	451.68905	374.50579	225.61261	85.16133999999997	407.43856	229.1378	83.95534999999998	347.88128	283.77836	452.98781	186.55713000000003	204.36866	85.90347999999999	155.38697	211.69735	84.14088999999998	214.57317	189.24742	-0.2783100000000229	373.48534	354.09676	2.4119799999999785	350.84987	346.67529	1.8553699999999738	428.86804	372.65043	2.319209999999976	390.92579	228.11735	3.061359999999977	377.19608	452.98781	3.1541199999999754	398.53279	169.6733	0.2783099999999885	187.94866	333.87326	2.597509999999987	215.12978	328.58546	2.3192099999999916	136.92607	353.54015	2.6902799999999893	175.61047	208.636	3.5251999999999883	185.35115	434.06307	3.43242999999999	170.13714	
